<?xml version="1.0" encoding="utf-8"?>
<!-- Generator: Adobe Illustrator 26.4.1, SVG Export Plug-In . SVG Version: 6.00 Build 0)  -->
<svg version="1.1" xmlns="http://www.w3.org/2000/svg" xmlns:xlink="http://www.w3.org/1999/xlink" x="0px" y="0px"
	 viewBox="0 0 1000 1000" style="enable-background:new 0 0 1000 1000;" xml:space="preserve">
<style type="text/css">
	.st0{fill:none;stroke:#F15A24;stroke-miterlimit:10;}
	.st1{fill:#FFFFFF;}
	.st2{opacity:0.4;}
	.st3{fill:#FF00FF;}
</style>
<g id="Camada_1">
	<g>
		<path d="M904.36-1302.29l40.5-19.96v14.19l-27.14,12.26l27.14,12.46v14.38l-40.5-20.11V-1302.29z"/>
	</g>
	<rect x="985.32" y="-1275.48" class="st0" width="10.44" height="10.44"/>
	<rect x="995.76" y="-1275.48" class="st0" width="10.44" height="10.44"/>
	<rect x="1006.2" y="-1275.48" class="st0" width="10.44" height="10.44"/>
	<rect x="1016.64" y="-1275.48" class="st0" width="10.44" height="10.44"/>
	<rect x="1027.08" y="-1275.48" class="st0" width="10.44" height="10.44"/>
	<rect x="1037.52" y="-1275.48" class="st0" width="10.44" height="10.44"/>
	<rect x="1047.96" y="-1275.48" class="st0" width="10.44" height="10.44"/>
	<rect x="1058.4" y="-1275.48" class="st0" width="10.44" height="10.44"/>
	<rect x="1068.84" y="-1275.48" class="st0" width="10.44" height="10.44"/>
	<rect x="1079.28" y="-1275.48" class="st0" width="10.44" height="10.44"/>
	<rect x="985.32" y="-1285.92" class="st0" width="10.44" height="10.44"/>
	<rect x="995.76" y="-1285.92" class="st0" width="10.44" height="10.44"/>
	<rect x="1006.2" y="-1285.92" class="st0" width="10.44" height="10.44"/>
	<rect x="1016.64" y="-1285.92" class="st0" width="10.44" height="10.44"/>
	<rect x="1027.08" y="-1285.92" class="st0" width="10.44" height="10.44"/>
	<rect x="1037.52" y="-1285.92" class="st0" width="10.44" height="10.44"/>
	<rect x="1047.96" y="-1285.92" class="st0" width="10.44" height="10.44"/>
	<rect x="1058.4" y="-1285.92" class="st0" width="10.44" height="10.44"/>
	<rect x="1068.84" y="-1285.92" class="st0" width="10.44" height="10.44"/>
	<rect x="1079.28" y="-1285.92" class="st0" width="10.44" height="10.44"/>
	<rect x="985.32" y="-1296.36" class="st0" width="10.44" height="10.44"/>
	<rect x="995.76" y="-1296.36" class="st0" width="10.44" height="10.44"/>
	<rect x="1006.2" y="-1296.36" class="st0" width="10.44" height="10.44"/>
	<rect x="1016.64" y="-1296.36" class="st0" width="10.44" height="10.44"/>
	<rect x="1027.08" y="-1296.36" class="st0" width="10.44" height="10.44"/>
	<rect x="1037.52" y="-1296.36" class="st0" width="10.44" height="10.44"/>
	<rect x="1047.96" y="-1296.36" class="st0" width="10.44" height="10.44"/>
	<rect x="1058.4" y="-1296.36" class="st0" width="10.44" height="10.44"/>
	<rect x="1068.84" y="-1296.36" class="st0" width="10.44" height="10.44"/>
	<rect x="1079.28" y="-1296.36" class="st0" width="10.44" height="10.44"/>
	<rect x="985.32" y="-1306.8" class="st0" width="10.44" height="10.44"/>
	<rect x="995.76" y="-1306.8" class="st0" width="10.44" height="10.44"/>
	<rect x="1006.2" y="-1306.8" class="st0" width="10.44" height="10.44"/>
	<rect x="1016.64" y="-1306.8" class="st0" width="10.44" height="10.44"/>
	<rect x="1027.08" y="-1306.8" class="st0" width="10.44" height="10.44"/>
	<rect x="1037.52" y="-1306.8" class="st0" width="10.44" height="10.44"/>
	<rect x="1047.96" y="-1306.8" class="st0" width="10.44" height="10.44"/>
	<rect x="1058.4" y="-1306.8" class="st0" width="10.44" height="10.44"/>
	<rect x="1068.84" y="-1306.8" class="st0" width="10.44" height="10.44"/>
	<rect x="1079.28" y="-1306.8" class="st0" width="10.44" height="10.44"/>
	<rect x="985.32" y="-1317.24" class="st0" width="10.44" height="10.44"/>
	<rect x="995.76" y="-1317.24" class="st0" width="10.44" height="10.44"/>
	<rect x="1006.2" y="-1317.24" class="st0" width="10.44" height="10.44"/>
	<rect x="1016.64" y="-1317.24" class="st0" width="10.44" height="10.44"/>
	<rect x="1027.08" y="-1317.24" class="st0" width="10.44" height="10.44"/>
	<rect x="1037.52" y="-1317.24" class="st0" width="10.44" height="10.44"/>
	<rect x="1047.96" y="-1317.24" class="st0" width="10.44" height="10.44"/>
	<rect x="1058.4" y="-1317.24" class="st0" width="10.44" height="10.44"/>
	<rect x="1068.84" y="-1317.24" class="st0" width="10.44" height="10.44"/>
	<rect x="1079.28" y="-1317.24" class="st0" width="10.44" height="10.44"/>
	<rect x="985.32" y="-1327.68" class="st0" width="10.44" height="10.44"/>
	<rect x="995.76" y="-1327.68" class="st0" width="10.44" height="10.44"/>
	<rect x="1006.2" y="-1327.68" class="st0" width="10.44" height="10.44"/>
	<rect x="1016.64" y="-1327.68" class="st0" width="10.44" height="10.44"/>
	<rect x="1027.08" y="-1327.68" class="st0" width="10.44" height="10.44"/>
	<rect x="1037.52" y="-1327.68" class="st0" width="10.44" height="10.44"/>
	<rect x="1047.96" y="-1327.68" class="st0" width="10.44" height="10.44"/>
	<rect x="1058.4" y="-1327.68" class="st0" width="10.44" height="10.44"/>
	<rect x="1068.84" y="-1327.68" class="st0" width="10.44" height="10.44"/>
	<rect x="1079.28" y="-1327.68" class="st0" width="10.44" height="10.44"/>
	<rect x="985.32" y="-1338.12" class="st0" width="10.44" height="10.44"/>
	<rect x="995.76" y="-1338.12" class="st0" width="10.44" height="10.44"/>
	<rect x="1006.2" y="-1338.12" class="st0" width="10.44" height="10.44"/>
	<rect x="1016.64" y="-1338.12" class="st0" width="10.44" height="10.44"/>
	<rect x="1027.08" y="-1338.12" class="st0" width="10.44" height="10.44"/>
	<rect x="1037.52" y="-1338.12" class="st0" width="10.44" height="10.44"/>
	<rect x="1047.96" y="-1338.12" class="st0" width="10.44" height="10.44"/>
	<rect x="1058.4" y="-1338.12" class="st0" width="10.44" height="10.44"/>
	<rect x="1068.84" y="-1338.12" class="st0" width="10.44" height="10.44"/>
	<rect x="1079.28" y="-1338.12" class="st0" width="10.44" height="10.44"/>
	<rect x="985.32" y="-1348.56" class="st0" width="10.44" height="10.44"/>
	<rect x="995.76" y="-1348.56" class="st0" width="10.44" height="10.44"/>
	<rect x="1006.2" y="-1348.56" class="st0" width="10.44" height="10.44"/>
	<rect x="1016.64" y="-1348.56" class="st0" width="10.44" height="10.44"/>
	<rect x="1027.08" y="-1348.56" class="st0" width="10.44" height="10.44"/>
	<rect x="1037.52" y="-1348.56" class="st0" width="10.44" height="10.44"/>
	<rect x="1047.96" y="-1348.56" class="st0" width="10.44" height="10.44"/>
	<rect x="1058.4" y="-1348.56" class="st0" width="10.44" height="10.44"/>
	<rect x="1068.84" y="-1348.56" class="st0" width="10.44" height="10.44"/>
	<rect x="1079.28" y="-1348.56" class="st0" width="10.44" height="10.44"/>
	<rect x="985.32" y="-1359" class="st0" width="10.44" height="10.44"/>
	<rect x="995.76" y="-1359" class="st0" width="10.44" height="10.44"/>
	<rect x="1006.2" y="-1359" class="st0" width="10.44" height="10.44"/>
	<rect x="1016.64" y="-1359" class="st0" width="10.44" height="10.44"/>
	<rect x="1027.08" y="-1359" class="st0" width="10.44" height="10.44"/>
	<rect x="1037.52" y="-1359" class="st0" width="10.44" height="10.44"/>
	<rect x="1047.96" y="-1359" class="st0" width="10.44" height="10.44"/>
	<rect x="1058.4" y="-1359" class="st0" width="10.44" height="10.44"/>
	<rect x="1068.84" y="-1359" class="st0" width="10.44" height="10.44"/>
	<rect x="1079.28" y="-1359" class="st0" width="10.44" height="10.44"/>
	<rect x="985.32" y="-1369.44" class="st0" width="10.44" height="10.44"/>
	<rect x="995.76" y="-1369.44" class="st0" width="10.44" height="10.44"/>
	<rect x="1006.2" y="-1369.44" class="st0" width="10.44" height="10.44"/>
	<rect x="1016.64" y="-1369.44" class="st0" width="10.44" height="10.44"/>
	<rect x="1027.08" y="-1369.44" class="st0" width="10.44" height="10.44"/>
	<rect x="1037.52" y="-1369.44" class="st0" width="10.44" height="10.44"/>
	<rect x="1047.96" y="-1369.44" class="st0" width="10.44" height="10.44"/>
	<rect x="1058.4" y="-1369.44" class="st0" width="10.44" height="10.44"/>
	<rect x="1068.84" y="-1369.44" class="st0" width="10.44" height="10.44"/>
	<rect x="1079.28" y="-1369.44" class="st0" width="10.44" height="10.44"/>
</g>
<g id="Camada_2">
	<g>
		<path d="M1058.4-1369.44l47.8,104.4h-47.8l-20.88-67.86l-20.88,67.86h-47.8l47.8-104.4H1058.4z"/>
	</g>
	<g>
		<path d="M1534.32-1112.26l91.87-42.07v42.07l-59.72,18.37l59.72,18.37v42.07l-91.87-42.07V-1112.26z"/>
	</g>
	<circle cx="1385.05" cy="-1092.88" r="110.7"/>
	<g>
		<path class="st1" d="M1403.42-1145.01l42.07,91.87h-42.07l-18.37-59.72l-18.37,59.72h-42.07l42.07-91.87H1403.42z"/>
	</g>
	<path d="M1586.45-1183.58c50.01,0,90.7,40.69,90.7,90.7s-40.69,90.7-90.7,90.7s-90.7-40.69-90.7-90.7
		S1536.44-1183.58,1586.45-1183.58 M1586.45-1203.58c-61.14,0-110.7,49.56-110.7,110.7c0,61.14,49.56,110.7,110.7,110.7
		s110.7-49.56,110.7-110.7C1697.15-1154.02,1647.59-1203.58,1586.45-1203.58L1586.45-1203.58z"/>
	<g>
		<g>
			<path class="st1" d="M2025.6,454.37l216.37-99.08v99.08l-140.64,43.27l140.64,43.27l0,99.08l-216.37-99.08V454.37z"/>
		</g>
		<circle class="st1" cx="1674.03" cy="500" r="260.72"/>
		<g>
			<path class="st1" d="M1717.31,377.23l99.08,216.37h-99.08l-43.27-140.64l-43.27,140.64l-99.08,0l99.08-216.37L1717.31,377.23z"/>
		</g>
		<path class="st1" d="M2148.37,286.39c117.79,0,213.61,95.83,213.61,213.61c0,117.79-95.83,213.61-213.61,213.61
			c-117.79,0-213.61-95.83-213.61-213.61C1934.75,382.21,2030.58,286.39,2148.37,286.39 M2148.37,239.28
			c-143.99,0-260.72,116.73-260.72,260.72s116.73,260.72,260.72,260.72S2409.08,643.99,2409.08,500S2292.36,239.28,2148.37,239.28
			L2148.37,239.28z"/>
	</g>
	<g>
		<g>
			<path d="M614.4,454.37l216.37-99.08v99.08l-140.64,43.27l140.64,43.27l0,99.08L614.4,540.92V454.37z"/>
		</g>
		<circle cx="262.83" cy="500" r="260.72"/>
		<g>
			<path class="st1" d="M306.11,377.23l99.08,216.37h-99.08l-43.27-140.64l-43.27,140.64l-99.08,0l99.08-216.37L306.11,377.23z"/>
		</g>
		<path d="M737.17,286.39c117.79,0,213.61,95.83,213.61,213.61c0,117.79-95.83,213.61-213.61,213.61S523.55,617.79,523.55,500
			C523.55,382.21,619.38,286.39,737.17,286.39 M737.17,239.28c-143.99,0-260.72,116.73-260.72,260.72s116.73,260.72,260.72,260.72
			S997.88,643.99,997.88,500S881.16,239.28,737.17,239.28L737.17,239.28z"/>
	</g>
	<g>
		<path class="st1" d="M1661.83-659.11l-91.87,42.07v36.75l91.87,42.07v-42.07l-59.72-18.38l59.72-18.37V-659.11z"/>
	</g>
	<path class="st1" d="M1521.39-643.69c-17.46-38.16-55.99-64.68-100.7-64.68c-61.14,0-110.7,49.57-110.7,110.7
		c0,61.14,49.56,110.7,110.7,110.7c44.71,0,83.23-26.51,100.7-64.67c6.42-14.02,10-29.61,10-46.03S1527.81-629.68,1521.39-643.69z
		 M1439.06-557.92l-18.37-59.72l-18.38,59.72h-42.07l42.07-91.87h36.75l42.07,91.87H1439.06z"/>
	<path class="st1" d="M1622.09-708.37c-44.72,0-83.24,26.52-100.7,64.68c-6.42,14.01-10,29.6-10,46.02s3.58,32.01,10,46.03
		c17.46,38.16,55.98,64.67,100.7,64.67c61.13,0,110.7-49.56,110.7-110.7C1732.79-658.8,1683.22-708.37,1622.09-708.37z
		 M1622.09-506.97c-50.02,0-90.7-40.68-90.7-90.7c0-50.01,40.68-90.7,90.7-90.7c50.01,0,90.7,40.69,90.7,90.7
		C1712.79-547.65,1672.1-506.97,1622.09-506.97z"/>
	<g class="st2">
		<path class="st3" d="M1047.66-985.09l42.07,91.87h-42.07l-18.37-59.72l-18.37,59.72h-42.07l42.07-91.87H1047.66z"/>
	</g>
	<path class="st2" d="M1950.91-1348.56c0,50.01-40.69,90.7-90.7,90.7s-90.7-40.69-90.7-90.7s40.69-90.7,90.7-90.7
		S1950.91-1398.57,1950.91-1348.56 M1970.91-1348.56c0-61.14-49.56-110.7-110.7-110.7c-61.14,0-110.7,49.56-110.7,110.7
		s49.56,110.7,110.7,110.7C1921.35-1237.86,1970.91-1287.42,1970.91-1348.56L1970.91-1348.56z"/>
</g>
</svg>
