<?xml version="1.0" encoding="utf-8"?>
<!-- Generator: Adobe Illustrator 26.4.1, SVG Export Plug-In . SVG Version: 6.00 Build 0)  -->
<svg version="1.1" xmlns="http://www.w3.org/2000/svg" xmlns:xlink="http://www.w3.org/1999/xlink" x="0px" y="0px"
	 viewBox="0 0 1000 1000" style="enable-background:new 0 0 1000 1000;" xml:space="preserve">
<style type="text/css">
	.st0{fill:none;stroke:#F15A24;stroke-miterlimit:10;}
	.st1{fill:#FFFFFF;}
	.st2{opacity:0.4;}
	.st3{fill:#FF00FF;}
</style>
<g id="Camada_1">
	<g>
		<path d="M-506.84-1302.29l40.5-19.96v14.19l-27.14,12.26l27.14,12.46v14.38l-40.5-20.11V-1302.29z"/>
	</g>
	<rect x="-425.88" y="-1275.48" class="st0" width="10.44" height="10.44"/>
	<rect x="-415.44" y="-1275.48" class="st0" width="10.44" height="10.44"/>
	<rect x="-405" y="-1275.48" class="st0" width="10.44" height="10.44"/>
	<rect x="-394.56" y="-1275.48" class="st0" width="10.44" height="10.44"/>
	<rect x="-384.12" y="-1275.48" class="st0" width="10.44" height="10.44"/>
	<rect x="-373.68" y="-1275.48" class="st0" width="10.44" height="10.44"/>
	<rect x="-363.24" y="-1275.48" class="st0" width="10.44" height="10.44"/>
	<rect x="-352.8" y="-1275.48" class="st0" width="10.44" height="10.44"/>
	<rect x="-342.36" y="-1275.48" class="st0" width="10.44" height="10.44"/>
	<rect x="-331.92" y="-1275.48" class="st0" width="10.44" height="10.44"/>
	<rect x="-425.88" y="-1285.92" class="st0" width="10.44" height="10.44"/>
	<rect x="-415.44" y="-1285.92" class="st0" width="10.44" height="10.44"/>
	<rect x="-405" y="-1285.92" class="st0" width="10.44" height="10.44"/>
	<rect x="-394.56" y="-1285.92" class="st0" width="10.44" height="10.44"/>
	<rect x="-384.12" y="-1285.92" class="st0" width="10.44" height="10.44"/>
	<rect x="-373.68" y="-1285.92" class="st0" width="10.44" height="10.44"/>
	<rect x="-363.24" y="-1285.92" class="st0" width="10.44" height="10.44"/>
	<rect x="-352.8" y="-1285.92" class="st0" width="10.44" height="10.44"/>
	<rect x="-342.36" y="-1285.92" class="st0" width="10.44" height="10.44"/>
	<rect x="-331.92" y="-1285.92" class="st0" width="10.44" height="10.44"/>
	<rect x="-425.88" y="-1296.36" class="st0" width="10.44" height="10.44"/>
	<rect x="-415.44" y="-1296.36" class="st0" width="10.44" height="10.44"/>
	<rect x="-405" y="-1296.36" class="st0" width="10.44" height="10.44"/>
	<rect x="-394.56" y="-1296.36" class="st0" width="10.44" height="10.44"/>
	<rect x="-384.12" y="-1296.36" class="st0" width="10.44" height="10.44"/>
	<rect x="-373.68" y="-1296.36" class="st0" width="10.44" height="10.44"/>
	<rect x="-363.24" y="-1296.36" class="st0" width="10.44" height="10.44"/>
	<rect x="-352.8" y="-1296.36" class="st0" width="10.44" height="10.44"/>
	<rect x="-342.36" y="-1296.36" class="st0" width="10.44" height="10.44"/>
	<rect x="-331.92" y="-1296.36" class="st0" width="10.44" height="10.44"/>
	<rect x="-425.88" y="-1306.8" class="st0" width="10.44" height="10.44"/>
	<rect x="-415.44" y="-1306.8" class="st0" width="10.44" height="10.44"/>
	<rect x="-405" y="-1306.8" class="st0" width="10.44" height="10.44"/>
	<rect x="-394.56" y="-1306.8" class="st0" width="10.44" height="10.44"/>
	<rect x="-384.12" y="-1306.8" class="st0" width="10.44" height="10.44"/>
	<rect x="-373.68" y="-1306.8" class="st0" width="10.44" height="10.44"/>
	<rect x="-363.24" y="-1306.8" class="st0" width="10.44" height="10.44"/>
	<rect x="-352.8" y="-1306.8" class="st0" width="10.44" height="10.44"/>
	<rect x="-342.36" y="-1306.8" class="st0" width="10.44" height="10.44"/>
	<rect x="-331.92" y="-1306.8" class="st0" width="10.44" height="10.44"/>
	<rect x="-425.88" y="-1317.24" class="st0" width="10.44" height="10.44"/>
	<rect x="-415.44" y="-1317.24" class="st0" width="10.44" height="10.44"/>
	<rect x="-405" y="-1317.24" class="st0" width="10.44" height="10.44"/>
	<rect x="-394.56" y="-1317.24" class="st0" width="10.44" height="10.44"/>
	<rect x="-384.12" y="-1317.24" class="st0" width="10.44" height="10.44"/>
	<rect x="-373.68" y="-1317.24" class="st0" width="10.44" height="10.44"/>
	<rect x="-363.24" y="-1317.24" class="st0" width="10.44" height="10.44"/>
	<rect x="-352.8" y="-1317.24" class="st0" width="10.44" height="10.44"/>
	<rect x="-342.36" y="-1317.24" class="st0" width="10.44" height="10.44"/>
	<rect x="-331.92" y="-1317.24" class="st0" width="10.44" height="10.44"/>
	<rect x="-425.88" y="-1327.68" class="st0" width="10.44" height="10.44"/>
	<rect x="-415.44" y="-1327.68" class="st0" width="10.44" height="10.44"/>
	<rect x="-405" y="-1327.68" class="st0" width="10.44" height="10.44"/>
	<rect x="-394.56" y="-1327.68" class="st0" width="10.44" height="10.44"/>
	<rect x="-384.12" y="-1327.68" class="st0" width="10.44" height="10.44"/>
	<rect x="-373.68" y="-1327.68" class="st0" width="10.44" height="10.44"/>
	<rect x="-363.24" y="-1327.68" class="st0" width="10.44" height="10.44"/>
	<rect x="-352.8" y="-1327.68" class="st0" width="10.44" height="10.44"/>
	<rect x="-342.36" y="-1327.68" class="st0" width="10.44" height="10.44"/>
	<rect x="-331.92" y="-1327.68" class="st0" width="10.44" height="10.44"/>
	<rect x="-425.88" y="-1338.12" class="st0" width="10.44" height="10.44"/>
	<rect x="-415.44" y="-1338.12" class="st0" width="10.44" height="10.44"/>
	<rect x="-405" y="-1338.12" class="st0" width="10.44" height="10.44"/>
	<rect x="-394.56" y="-1338.12" class="st0" width="10.44" height="10.44"/>
	<rect x="-384.12" y="-1338.12" class="st0" width="10.44" height="10.44"/>
	<rect x="-373.68" y="-1338.12" class="st0" width="10.44" height="10.44"/>
	<rect x="-363.24" y="-1338.12" class="st0" width="10.44" height="10.44"/>
	<rect x="-352.8" y="-1338.12" class="st0" width="10.44" height="10.44"/>
	<rect x="-342.36" y="-1338.12" class="st0" width="10.44" height="10.44"/>
	<rect x="-331.92" y="-1338.12" class="st0" width="10.44" height="10.44"/>
	<rect x="-425.88" y="-1348.56" class="st0" width="10.44" height="10.44"/>
	<rect x="-415.44" y="-1348.56" class="st0" width="10.44" height="10.44"/>
	<rect x="-405" y="-1348.56" class="st0" width="10.44" height="10.44"/>
	<rect x="-394.56" y="-1348.56" class="st0" width="10.44" height="10.44"/>
	<rect x="-384.12" y="-1348.56" class="st0" width="10.44" height="10.44"/>
	<rect x="-373.68" y="-1348.56" class="st0" width="10.44" height="10.44"/>
	<rect x="-363.24" y="-1348.56" class="st0" width="10.44" height="10.44"/>
	<rect x="-352.8" y="-1348.56" class="st0" width="10.44" height="10.44"/>
	<rect x="-342.36" y="-1348.56" class="st0" width="10.44" height="10.44"/>
	<rect x="-331.92" y="-1348.56" class="st0" width="10.44" height="10.44"/>
	<rect x="-425.88" y="-1359" class="st0" width="10.44" height="10.44"/>
	<rect x="-415.44" y="-1359" class="st0" width="10.44" height="10.44"/>
	<rect x="-405" y="-1359" class="st0" width="10.44" height="10.44"/>
	<rect x="-394.56" y="-1359" class="st0" width="10.44" height="10.44"/>
	<rect x="-384.12" y="-1359" class="st0" width="10.44" height="10.44"/>
	<rect x="-373.68" y="-1359" class="st0" width="10.44" height="10.44"/>
	<rect x="-363.24" y="-1359" class="st0" width="10.44" height="10.44"/>
	<rect x="-352.8" y="-1359" class="st0" width="10.44" height="10.44"/>
	<rect x="-342.36" y="-1359" class="st0" width="10.44" height="10.44"/>
	<rect x="-331.92" y="-1359" class="st0" width="10.44" height="10.44"/>
	<rect x="-425.88" y="-1369.44" class="st0" width="10.44" height="10.44"/>
	<rect x="-415.44" y="-1369.44" class="st0" width="10.44" height="10.44"/>
	<rect x="-405" y="-1369.44" class="st0" width="10.44" height="10.44"/>
	<rect x="-394.56" y="-1369.44" class="st0" width="10.44" height="10.44"/>
	<rect x="-384.12" y="-1369.44" class="st0" width="10.44" height="10.44"/>
	<rect x="-373.68" y="-1369.44" class="st0" width="10.44" height="10.44"/>
	<rect x="-363.24" y="-1369.44" class="st0" width="10.44" height="10.44"/>
	<rect x="-352.8" y="-1369.44" class="st0" width="10.44" height="10.44"/>
	<rect x="-342.36" y="-1369.44" class="st0" width="10.44" height="10.44"/>
	<rect x="-331.92" y="-1369.44" class="st0" width="10.44" height="10.44"/>
</g>
<g id="Camada_2">
	<g>
		<path d="M-352.8-1369.44l47.8,104.4h-47.8l-20.88-67.86l-20.88,67.86h-47.8l47.8-104.4H-352.8z"/>
	</g>
	<g>
		<path d="M123.12-1112.26l91.87-42.07l0,42.07l-59.72,18.37l59.72,18.37l0,42.07l-91.87-42.07L123.12-1112.26z"/>
	</g>
	<circle cx="-26.15" cy="-1092.88" r="110.7"/>
	<g>
		<path class="st1" d="M-7.78-1145.01l42.07,91.87H-7.78l-18.37-59.72l-18.37,59.72h-42.07l42.07-91.87H-7.78z"/>
	</g>
	<path d="M175.25-1183.58c50.01,0,90.7,40.69,90.7,90.7s-40.69,90.7-90.7,90.7s-90.7-40.69-90.7-90.7S125.24-1183.58,175.25-1183.58
		 M175.25-1203.58c-61.14,0-110.7,49.56-110.7,110.7c0,61.14,49.56,110.7,110.7,110.7s110.7-49.56,110.7-110.7
		C285.95-1154.02,236.39-1203.58,175.25-1203.58L175.25-1203.58z"/>
	<g>
		<g>
			<path class="st1" d="M830.77,355.29l-216.38,99.08v86.55L830.77,640v-99.08l-140.65-43.28l140.65-43.27V355.29z"/>
		</g>
		<path class="st1" d="M500,391.55c-41.16-89.85-131.88-152.27-237.17-152.27C118.84,239.28,2.11,356.01,2.11,500
			s116.73,260.72,260.72,260.72c105.29,0,196.01-62.42,237.17-152.27c15.12-33.02,23.55-69.75,23.55-108.45
			S515.12,424.57,500,391.55z M306.11,593.61l-43.28-140.65l-43.27,140.65h-99.08l99.08-216.38h86.55l99.07,216.38H306.11z"/>
		<path class="st1" d="M737.16,239.28c-105.29,0-196.01,62.42-237.16,152.27c-15.13,33.02-23.56,69.75-23.56,108.45
			s8.43,75.43,23.56,108.45c41.15,89.85,131.87,152.27,237.16,152.27c143.99,0,260.72-116.73,260.72-260.72
			S881.15,239.28,737.16,239.28z M737.16,713.61c-117.79,0-213.61-95.82-213.61-213.61s95.82-213.61,213.61-213.61
			c117.79,0,213.61,95.82,213.61,213.61S854.95,713.61,737.16,713.61z"/>
	</g>
	<g>
		<g>
			<path d="M-796.8,454.37l216.37-99.08v99.08l-140.64,43.27l140.64,43.27l0,99.08l-216.37-99.08V454.37z"/>
		</g>
		<circle cx="-1148.37" cy="500" r="260.72"/>
		<g>
			<path class="st1" d="M-1105.09,377.23l99.08,216.37h-99.08l-43.27-140.64l-43.27,140.64l-99.08,0l99.08-216.37L-1105.09,377.23z"
				/>
		</g>
		<path d="M-674.03,286.39c117.79,0,213.61,95.83,213.61,213.61c0,117.79-95.83,213.61-213.61,213.61S-887.65,617.79-887.65,500
			C-887.65,382.21-791.82,286.39-674.03,286.39 M-674.03,239.28c-143.99,0-260.72,116.73-260.72,260.72s116.73,260.72,260.72,260.72
			S-413.32,643.99-413.32,500S-530.04,239.28-674.03,239.28L-674.03,239.28z"/>
	</g>
	<g>
		<path class="st1" d="M250.63-659.11l-91.87,42.07v36.75l91.87,42.07v-42.07l-59.72-18.38l59.72-18.37V-659.11z"/>
	</g>
	<path class="st1" d="M110.19-643.69c-17.46-38.16-55.99-64.68-100.7-64.68c-61.14,0-110.7,49.57-110.7,110.7
		c0,61.14,49.56,110.7,110.7,110.7c44.71,0,83.23-26.51,100.7-64.67c6.42-14.02,10-29.61,10-46.03S116.61-629.68,110.19-643.69z
		 M27.86-557.92L9.49-617.64l-18.38,59.72h-42.07l42.07-91.87h36.75l42.07,91.87H27.86z"/>
	<path class="st1" d="M210.89-708.37c-44.72,0-83.24,26.52-100.7,64.68c-6.42,14.01-10,29.6-10,46.02s3.58,32.01,10,46.03
		c17.46,38.16,55.98,64.67,100.7,64.67c61.13,0,110.7-49.56,110.7-110.7C321.59-658.8,272.02-708.37,210.89-708.37z M210.89-506.97
		c-50.02,0-90.7-40.68-90.7-90.7c0-50.01,40.68-90.7,90.7-90.7c50.01,0,90.7,40.69,90.7,90.7
		C301.59-547.65,260.9-506.97,210.89-506.97z"/>
	<g class="st2">
		<path class="st3" d="M-363.54-985.09l42.07,91.87h-42.07l-18.37-59.72l-18.37,59.72h-42.07l42.07-91.87H-363.54z"/>
	</g>
	<path class="st2" d="M539.71-1348.56c0,50.01-40.69,90.7-90.7,90.7c-50.01,0-90.7-40.69-90.7-90.7s40.69-90.7,90.7-90.7
		C499.02-1439.26,539.71-1398.57,539.71-1348.56 M559.71-1348.56c0-61.14-49.56-110.7-110.7-110.7s-110.7,49.56-110.7,110.7
		s49.56,110.7,110.7,110.7S559.71-1287.42,559.71-1348.56L559.71-1348.56z"/>
</g>
</svg>
